<svg id="图层_1" data-name="图层 1" xmlns="http://www.w3.org/2000/svg" xmlns:xlink="http://www.w3.org/1999/xlink"
     viewBox="0 0 24 24">
    <defs>
        <style>
            .cls-1,.cls-3{fill:none;}.cls-1{clip-rule:evenodd;}.cls-2{fill:url(#未命名的渐变_2);}.cls-4{clip-path:url(#clip-path);}
        </style>
        <linearGradient id="未命名的渐变_2" x1="2.03" y1="18.88" x2="21.95" y2="7.38" gradientUnits="userSpaceOnUse">
            <stop offset="0" stop-color="#3453c2"/>
            <stop offset="1" stop-color="#07b0a9"/>
        </linearGradient>
        <clipPath id="clip-path">
            <path class="cls-1"
                  d="M162-1282.8a4.8,4.8,0,0,1,4.8,4.8,4.8,4.8,0,0,1-4.8,4.8,4.8,4.8,0,0,1-4.8-4.8,4.8,4.8,0,0,1,4.8-4.8m0-1.2a6,6,0,0,0-6,6,6,6,0,0,0,6,6,6,6,0,0,0,6-6,6,6,0,0,0-6-6"/>
        </clipPath>
    </defs>
    <title>ic_today_hov</title>
    <path class="cls-2"
          d="M18.59,22.23H5.41a2.5,2.5,0,0,1-2.5-2.5V6.55a2.5,2.5,0,0,1,2.5-2.5H7.77V2.27h1v4.3h-1V5.05H5.41a1.5,1.5,0,0,0-1.5,1.5v2H20.09v-2a1.5,1.5,0,0,0-1.5-1.5H16.23V6.57h-1V2.27h1V4.05h2.36a2.5,2.5,0,0,1,2.5,2.5V19.73A2.5,2.5,0,0,1,18.59,22.23ZM3.91,9.51V19.73a1.5,1.5,0,0,0,1.5,1.5H18.59a1.5,1.5,0,0,0,1.5-1.5V9.51ZM14.12,5.05H9.88v-1h4.24Z"/>
    <rect class="cls-3" width="24" height="24"/>
</svg>